<svg xmlns="http://www.w3.org/2000/svg" viewBox="0 0 533.5 544.3"><path fill="#4285f4" d="M533.5 278.4c0-17.4-1.5-34.1-4.3-50.4H272v95.4h146.9c-6.4 34.6-25 63.9-53.4 83.5v69.4h86.4c50.6-46.7 80-115.2 80-197.9z"/><path fill="#34a853" d="M272 544.3c72.6 0 133.6-24 178.1-65.4l-86.4-69.4c-24.1 16.2-55.1 25.8-91.6 25.8-70.5 0-130.3-47.6-151.7-111.6H32.2v69.8c44.2 87.4 134.9 150.8 239.8 150.8z"/><path fill="#fbbc04" d="M120.3 323.3c-10.3-30.6-10.3-63.7 0-94.3v-69.8H32.2c-40.3 80.4-40.3 175.8 0 256.2l88.1-69.8z"/><path fill="#ea4335" d="M272 107.7c39.5-.6 77.6 14.1 106.6 40.7l80-80C395.6 24.9 340.1 0 272 0 167.1 0 76.3 63.4 32.2 150.8l88.1 69.8C141.7 155.3 201.5 107.7 272 107.7z"/></svg>